<?xml version="1.0" encoding="UTF-8" standalone="no"?>
<!-- Created with Inkscape (http://www.inkscape.org/) -->

<svg
   xmlns:dc="http://purl.org/dc/elements/1.1/"
   xmlns:cc="http://creativecommons.org/ns#"
   xmlns:rdf="http://www.w3.org/1999/02/22-rdf-syntax-ns#"
   xmlns:svg="http://www.w3.org/2000/svg"
   xmlns="http://www.w3.org/2000/svg"
   xmlns:sodipodi="http://sodipodi.sourceforge.net/DTD/sodipodi-0.dtd"
   xmlns:inkscape="http://www.inkscape.org/namespaces/inkscape"
   id="svg2"
   version="1.1"
   inkscape:version="0.91 r13725"
   xml:space="preserve"
   width="230.4525"
   height="71.974129"
   viewBox="0 0 230.4525 71.974129"
   sodipodi:docname="WhiteConsilioLogo_noTag.svg"><metadata
     id="metadata8"><rdf:RDF><cc:Work
         rdf:about=""><dc:format>image/svg+xml</dc:format><dc:type
           rdf:resource="http://purl.org/dc/dcmitype/StillImage" /><dc:title></dc:title></cc:Work></rdf:RDF></metadata><defs
     id="defs6" /><sodipodi:namedview
     pagecolor="#ff00ff"
     bordercolor="#666666"
     borderopacity="1"
     objecttolerance="10"
     gridtolerance="10"
     guidetolerance="10"
     inkscape:pageopacity="0"
     inkscape:pageshadow="2"
     inkscape:window-width="1920"
     inkscape:window-height="1028"
     id="namedview4"
     showgrid="false"
     fit-margin-top="0"
     fit-margin-left="0"
     fit-margin-right="0"
     fit-margin-bottom="0"
     inkscape:zoom="1.4720514"
     inkscape:cx="116.84375"
     inkscape:cy="-58.300645"
     inkscape:window-x="-8"
     inkscape:window-y="-8"
     inkscape:window-maximized="1"
     inkscape:current-layer="g10" /><g
     id="g10"
     inkscape:groupmode="layer"
     inkscape:label="ink_ext_XXXXXX"
     transform="matrix(1.25,0,0,-1.25,0,97.505875)"><g
       id="g3427"><path
         d="m 121.155,30.5871 c 0.034,-0.3613 0.053,-0.9414 0.151,-1.5078 0.259,-1.498 1.077,-2.407 2.42,-2.6668 1.416,-0.2734 2.658,0.1195 3.71,1.1016 0.746,0.6968 1.303,1.5308 1.724,2.4562 1.089,2.3902 1.442,4.9223 1.396,7.5199 -0.015,0.8383 -0.14,1.6731 -0.519,2.4434 -0.455,0.9234 -1.184,1.4566 -2.214,1.5836 -1.291,0.1594 -2.384,-0.2547 -3.329,-1.1164 -0.584,-0.5332 -1.055,-1.1567 -1.426,-1.8531 -1.291,-2.4196 -1.822,-5.0254 -1.913,-7.9606 z m 1.38,-9.8176 c -0.324,0.0727 -0.646,0.1524 -0.971,0.216 -3.731,0.7352 -6.421,3.4911 -7.094,7.2325 -0.294,1.6351 -0.237,3.2711 -0.082,4.9062 0.202,2.1278 0.682,4.1914 1.543,6.1574 1.22,2.7864 3.062,5.0168 5.779,6.4606 1.486,0.7891 3.078,1.2027 4.751,1.3574 1.464,0.1356 2.915,0.0824 4.331,-0.2969 3.346,-0.8957 5.402,-3.089 6.287,-6.4082 0.384,-1.4382 0.41,-2.9097 0.357,-4.3879 -0.107,-3.0394 -0.703,-5.9617 -2.156,-8.6578 -1.787,-3.316 -4.48,-5.48 -8.199,-6.2925 -0.468,-0.1024 -0.94,-0.1915 -1.41,-0.2868 -1.046,0 -2.091,0 -3.136,0"
         style="fill:#ffffff;fill-opacity:1;fill-rule:nonzero;stroke:none"
         id="path14"
         inkscape:connector-curvature="0" /><path
         d="m 39.4348,36.9152 c 0.0062,0.9047 -0.0606,1.9067 -0.4586,2.8551 -0.3879,0.9235 -1.0586,1.527 -2.0547,1.7133 -1.118,0.2094 -2.1481,-0.0281 -3.075,-0.6875 -1.0512,-0.7477 -1.7344,-1.7863 -2.2625,-2.9344 -0.9547,-2.0746 -1.4137,-4.2687 -1.5379,-6.5418 -0.0535,-0.9761 -0.0106,-1.9394 0.2918,-2.8754 0.3871,-1.1996 1.2168,-1.8984 2.4613,-2.0695 1.316,-0.1809 2.4664,0.198 3.4492,1.0961 0.9586,0.8758 1.5965,1.9602 2.0618,3.1551 0.7738,1.9867 1.0875,4.059 1.1246,6.289 z M 31.3617,20.7695 c -0.4672,0.1078 -0.9363,0.2098 -1.4019,0.325 -3.5606,0.8821 -6.1071,3.6836 -6.6543,7.3243 -0.2461,1.6351 -0.1782,3.2718 -0.0196,4.9101 0.1793,1.8484 0.5918,3.6414 1.2692,5.3695 0.9301,2.3735 2.3133,4.4219 4.3597,5.9825 1.8911,1.4414 4.036,2.2035 6.3969,2.4171 1.3871,0.1254 2.7621,0.0891 4.1125,-0.2406 3.6031,-0.8793 5.7539,-3.2019 6.5922,-6.7722 0.3391,-1.4438 0.3617,-2.9153 0.2793,-4.395 -0.1109,-1.9843 -0.416,-3.9289 -1.0562,-5.8136 -0.8247,-2.4274 -2.0848,-4.5762 -4.0571,-6.2598 -1.7945,-1.5324 -3.8746,-2.4184 -6.2074,-2.7297 -0.1613,-0.0215 -0.3184,-0.0777 -0.477,-0.1176 -1.0457,0 -2.091,0 -3.1363,0"
         style="fill:#ffffff;fill-opacity:1;fill-rule:nonzero;stroke:none"
         id="path16"
         inkscape:connector-curvature="0" /><path
         d="m 0,35.6664 c 0.0722656,0.5309 0.151563,1.0606 0.215625,1.5926 0.460547,3.8215 1.705075,7.3605 3.864455,10.5539 2.29219,3.3902 5.38515,5.6859 9.37812,6.7125 1.9898,0.5117 4.0156,0.5922 6.0527,0.4769 2.252,-0.1273 4.4305,-0.5843 6.4864,-1.5421 0.5367,-0.25 1.0648,-0.5188 1.6297,-0.795 -0.9082,-1.9246 -1.7883,-3.7906 -2.6934,-5.7086 -0.3063,0.1633 -0.5785,0.3114 -0.8535,0.4543 -1.4442,0.7512 -2.927,1.3825 -4.5571,1.6227 -3.714,0.5465 -6.7097,-0.682 -8.9988,-3.6313 -1.48982,-1.9191 -2.36014,-4.132 -2.90857,-6.4769 -0.4918,-2.1024 -0.65,-4.2348 -0.44766,-6.3875 0.07851,-0.8375 0.25898,-1.6559 0.56445,-2.4434 0.74531,-1.9203 2.18946,-2.957 4.18128,-3.2832 1.9308,-0.316 3.8324,-0.0836 5.7027,0.409 1.043,0.2746 2.0617,0.6395 3.0906,0.966 0.1754,0.0559 0.3461,0.1246 0.5672,0.2043 0,-1.9777 0,-3.9101 0,-5.8785 -0.1176,-0.0527 -0.2465,-0.1199 -0.3816,-0.1699 -2.0543,-0.7606 -4.1649,-1.277 -6.3512,-1.4692 -0.1449,-0.0125 -0.2859,-0.0679 -0.4285,-0.1035 -1.1949,0 -2.3895,0 -3.5844,0 C 10.0934,20.8484 9.6582,20.9262 9.22344,21.007 6.37891,21.5359 4.01875,22.8602 2.31602,25.2449 1.15625,26.8695 0.539063,28.7078 0.23125,30.6625 0.151172,31.1727 0.0769531,31.6836 0,32.1941 c 0,1.1575 0,2.3149 0,3.4723"
         style="fill:#ffffff;fill-opacity:1;fill-rule:nonzero;stroke:none"
         id="path18"
         inkscape:connector-curvature="0" /><path
         d="m 73.252,20.7695 c -0.5317,0.0778 -1.0641,0.1532 -1.5954,0.234 -1.241,0.1891 -2.4363,0.532 -3.5742,1.066 -0.0996,0.0473 -0.1906,0.1125 -0.2996,0.1778 0,1.8461 0,3.6886 0,5.5847 0.186,-0.0859 0.3367,-0.1468 0.4793,-0.2234 2.002,-1.0758 4.1328,-1.6926 6.4067,-1.7852 0.9195,-0.0375 1.8289,0.0567 2.6847,0.4211 0.3227,0.1375 0.641,0.3106 0.9188,0.5235 1.0894,0.8351 1.2449,2.2945 0.3058,3.2933 -0.441,0.4692 -0.9816,0.8598 -1.5238,1.2157 -0.7781,0.5109 -1.6016,0.9523 -2.4,1.4324 -0.8652,0.5203 -1.684,1.1023 -2.4094,1.8105 -1.1172,1.0914 -1.7285,2.4133 -1.8105,3.9719 -0.084,1.5883 0.1082,3.1301 0.8754,4.5531 1.0277,1.9055 2.6804,3.0106 4.714,3.591 1.7762,0.5071 3.5903,0.6032 5.4297,0.4704 2.1871,-0.1583 4.2563,-0.7094 6.2067,-1.7083 0.2304,-0.1183 0.4539,-0.2511 0.7253,-0.4027 -0.7464,-1.6226 -1.4832,-3.2234 -2.2472,-4.8848 -0.2067,0.1098 -0.382,0.1993 -0.5539,0.295 -1.2617,0.7011 -2.5801,1.255 -4.0117,1.4937 -0.8692,0.1446 -1.7454,0.2074 -2.6028,-0.0715 -0.7879,-0.2562 -1.4125,-0.7078 -1.573,-1.5769 -0.1621,-0.877 0.1695,-1.6035 0.8863,-2.091 0.8301,-0.5645 1.6961,-1.0825 2.5777,-1.5625 1.2336,-0.6719 2.4243,-1.3918 3.4129,-2.4075 1.2153,-1.248 1.8305,-2.7375 1.8489,-4.4808 0.0164,-1.5141 -0.2196,-2.9742 -0.9133,-4.3324 -0.8223,-1.6098 -2.1274,-2.7149 -3.7426,-3.4731 -1.1918,-0.5594 -2.4566,-0.8617 -3.7598,-1.0195 -0.18,-0.0219 -0.3566,-0.0754 -0.5347,-0.1145 -1.3071,0 -2.6137,0 -3.9203,0"
         style="fill:#ffffff;fill-opacity:1;fill-rule:nonzero;stroke:none"
         id="path20"
         inkscape:connector-curvature="0" /><path
         d="m 167.225,78.0047 c 0.396,-0.15 0.788,-0.3125 1.19,-0.4469 1.024,-0.343 2.053,-0.6726 3.08,-1.0101 0.14,-0.0461 0.277,-0.1043 0.474,-0.1793 -1.52,-2.352 -3.023,-4.677 -4.598,-7.1149 -0.042,0.7903 -0.088,1.4465 -0.109,2.1035 -0.066,2.0129 -0.12,4.0262 -0.184,6.0391 -0.007,0.2035 -0.05,0.4059 -0.077,0.6086 0.075,0 0.149,0 0.224,0"
         style="fill:#ffffff;fill-opacity:1;fill-rule:nonzero;stroke:none"
         id="path22"
         inkscape:connector-curvature="0" /><path
         d="m 184.362,52.1313 c -0.076,-0.1833 -0.171,-0.361 -0.225,-0.5504 -0.38,-1.3235 -0.752,-2.6493 -1.127,-3.9735 -0.025,-0.0859 -0.061,-0.1687 -0.121,-0.3332 -2.277,1.6051 -4.515,3.1821 -6.754,4.7594 0.012,0.0422 0.023,0.0848 0.035,0.1269 2.731,0.0278 5.461,0.0551 8.192,0.0829 0,-0.0375 0,-0.075 0,-0.1121"
         style="fill:#ffffff;fill-opacity:1;fill-rule:nonzero;stroke:none"
         id="path24"
         inkscape:connector-curvature="0" /><path
         d="m 49.9516,46.643 c 1.7699,0 3.4781,0 5.2367,0 -0.1528,-1.5586 -0.302,-3.0825 -0.4512,-4.6063 0.0367,-0.0125 0.0734,-0.0254 0.1102,-0.0379 0.1168,0.1594 0.2379,0.316 0.3504,0.4785 1.0277,1.4922 2.2351,2.8008 3.8441,3.6809 1.9012,1.0402 3.9207,1.2742 6.0098,0.741 2.239,-0.5719 3.5504,-2.0945 4.1453,-4.2703 0.4344,-1.5898 0.4719,-3.2176 0.1754,-4.8266 -0.5067,-2.7476 -1.0785,-5.4835 -1.6391,-8.221 -0.5422,-2.6461 -1.1047,-5.2883 -1.6598,-7.9321 -0.0265,-0.1262 -0.0671,-0.25 -0.1089,-0.4023 -2.2579,0 -4.5075,0 -6.8235,0 0.093,0.4726 0.175,0.9215 0.2692,1.3676 0.982,4.6671 1.9714,9.3328 2.9449,14.0015 0.2015,0.9676 0.3465,1.9434 0.1965,2.9422 -0.2485,1.6582 -1.4473,2.1953 -2.87,2.0082 -0.7187,-0.0945 -1.3437,-0.4281 -1.8961,-0.8961 -0.9128,-0.7746 -1.557,-1.7519 -2.1,-2.8023 -1.0007,-1.9371 -1.5878,-4.0141 -2.039,-6.134 -0.7168,-3.3711 -1.4246,-6.7442 -2.1387,-10.116 -0.0262,-0.1242 -0.0773,-0.243 -0.1191,-0.3707 -2.2696,0 -4.5199,0 -6.8211,0 1.8,8.4894 3.5906,16.9371 5.384,25.3957"
         style="fill:#ffffff;fill-opacity:1;fill-rule:nonzero;stroke:none"
         id="path26"
         inkscape:connector-curvature="0" /><path
         d="m 102.241,56.6086 c 2.236,0 4.484,0 6.81,0 -2.503,-11.802 -4.997,-23.5629 -7.498,-35.3563 -2.2659,0 -4.5151,0 -6.7647,0 -0.0301,0.436 7.0967,34.2704 7.4527,35.3563"
         style="fill:#ffffff;fill-opacity:1;fill-rule:nonzero;stroke:none"
         id="path28"
         inkscape:connector-curvature="0" /><path
         d="m 90.8863,46.641 c 2.2903,0 4.5391,0 6.8598,0 -1.7957,-8.4738 -3.5828,-16.9058 -5.368,-25.3297 -0.4082,-0.1175 -6.0453,-0.1515 -6.8676,-0.0375 1.7875,8.4356 3.5747,16.8672 5.3758,25.3672"
         style="fill:#ffffff;fill-opacity:1;fill-rule:nonzero;stroke:none"
         id="path30"
         inkscape:connector-curvature="0" /><path
         d="m 116.112,46.5922 c -1.787,-8.4344 -3.575,-16.8688 -5.37,-25.3379 -2.264,0 -4.514,0 -6.764,0 -0.036,0.4641 4.811,23.6102 5.307,25.332 0.438,0.1157 6.275,0.1274 6.827,0.0059"
         style="fill:#ffffff;fill-opacity:1;fill-rule:nonzero;stroke:none"
         id="path32"
         inkscape:connector-curvature="0" /><path
         d="m 175.113,71.2766 c -1.04,-3.8243 -2.08,-7.6481 -3.146,-11.5696 -2.319,1.9039 -4.56,3.7918 -6.851,5.6985 3.338,2.0031 6.627,3.9765 9.916,5.95 0.027,-0.0262 0.054,-0.0528 0.081,-0.0789"
         style="fill:#f47216;fill-opacity:1;fill-rule:nonzero;stroke:none"
         id="path34"
         inkscape:connector-curvature="0" /><path
         d="m 113.82,49.8207 c -0.461,0.0578 -0.929,0.0805 -1.38,0.1809 -1.336,0.2961 -2.018,1.0988 -2.068,2.4672 -0.017,0.496 0.038,1.0078 0.146,1.4933 0.304,1.3715 1.194,2.1899 2.538,2.5313 0.843,0.214 1.705,0.2175 2.552,0.0765 1.558,-0.2586 2.333,-1.2168 2.292,-2.7976 -0.011,-0.4418 -0.079,-0.893 -0.195,-1.3196 -0.403,-1.4781 -1.518,-2.3972 -3.044,-2.5492 -0.278,-0.0277 -0.557,-0.0355 -0.836,-0.0527 -0.002,-0.0102 -0.004,-0.0203 -0.005,-0.0301"
         style="fill:#ffffff;fill-opacity:1;fill-rule:nonzero;stroke:none"
         id="path36"
         inkscape:connector-curvature="0" /><path
         d="m 95.2281,49.8391 c -0.3226,0.0445 -0.7894,0.0757 -1.2402,0.1773 -1.216,0.2742 -1.8906,1.0629 -1.9891,2.3059 -0.0515,0.6543 0.0145,1.3058 0.2129,1.932 0.3313,1.0449 1.0278,1.7578 2.0625,2.1164 1.0281,0.3563 2.0899,0.3809 3.1399,0.1481 1.4961,-0.3321 2.2058,-1.2985 2.1179,-2.8235 -0.0234,-0.4055 -0.0882,-0.816 -0.1945,-1.2078 -0.4121,-1.5156 -1.5102,-2.4285 -3.0746,-2.5848 -0.2961,-0.0293 -0.5945,-0.0371 -1.0348,-0.0636"
         style="fill:#ffffff;fill-opacity:1;fill-rule:nonzero;stroke:none"
         id="path38"
         inkscape:connector-curvature="0" /><path
         d="m 174.943,37.8039 c -1.633,-0.6789 -3.176,-1.3203 -4.796,-1.9941 -0.384,2.7957 -0.759,5.5367 -1.135,8.2781 0.032,0.0191 0.064,0.0383 0.096,0.0574 1.923,-2.0898 3.846,-4.1797 5.835,-6.3414"
         style="fill:#ffffff;fill-opacity:1;fill-rule:nonzero;stroke:none"
         id="path40"
         inkscape:connector-curvature="0" /><path
         d="m 142.408,49.2969 c 2.807,0.5015 5.544,0.991 8.229,1.4707 -2.011,-2.011 -4.034,-4.034 -6.087,-6.0871 -0.694,1.4949 -1.402,3.0215 -2.142,4.6164"
         style="fill:#ffffff;fill-opacity:1;fill-rule:nonzero;stroke:none"
         id="path42"
         inkscape:connector-curvature="0" /><path
         d="m 143.263,66.0965 c 2.317,-1.6367 4.55,-3.2145 6.783,-4.7918 -0.01,-0.0293 -0.02,-0.0586 -0.03,-0.0875 -2.835,0 -5.67,0 -8.57,0 0.609,1.634 1.197,3.2141 1.817,4.8793"
         style="fill:#ffffff;fill-opacity:1;fill-rule:nonzero;stroke:none"
         id="path44"
         inkscape:connector-curvature="0" /><path
         d="m 178.291,43.7563 c -2.589,1.0246 -5.179,2.0488 -7.856,3.1078 1.171,1.3031 2.297,2.5539 3.474,3.8632 1.501,-2.3238 2.972,-4.6019 4.443,-6.88 -0.02,-0.0301 -0.041,-0.0606 -0.061,-0.091"
         style="fill:#ffffff;fill-opacity:1;fill-rule:nonzero;stroke:none"
         id="path46"
         inkscape:connector-curvature="0" /><path
         d="m 150.803,41.359 c 0.011,0.1418 -0.007,0.2937 0.038,0.4242 0.833,2.4313 1.673,4.8598 2.514,7.2883 0.035,0.1019 0.092,0.1961 0.157,0.332 1.324,-1.0996 2.624,-2.1789 3.965,-3.2926 -2.259,-1.6054 -4.475,-3.1808 -6.691,-4.7562 l 0.017,0.0043"
         style="fill:#ffffff;fill-opacity:1;fill-rule:nonzero;stroke:none"
         id="path48"
         inkscape:connector-curvature="0" /><path
         d="m 166.375,45.034 c -0.666,-2.6465 -1.326,-5.268 -1.985,-7.8899 -0.03,-0.0046 -0.06,-0.0097 -0.09,-0.0144 -1.019,2.6019 -2.037,5.2039 -3.095,7.9043 1.775,0 3.436,0 5.17,0"
         style="fill:#ffffff;fill-opacity:1;fill-rule:nonzero;stroke:none"
         id="path50"
         inkscape:connector-curvature="0" /><path
         d="m 182.722,58.1008 c -2.543,-1.1188 -5.087,-2.2379 -7.715,-3.3945 -0.1,1.7355 -0.196,3.4093 -0.299,5.1812 2.725,-0.5711 5.366,-1.1242 8.007,-1.6773 0.003,-0.0364 0.005,-0.0727 0.007,-0.1094"
         style="fill:#ffffff;fill-opacity:1;fill-rule:nonzero;stroke:none"
         id="path52"
         inkscape:connector-curvature="0" /><path
         d="m 165.058,68.2676 c -1.78,-0.0391 -3.45,-0.0754 -5.187,-0.1133 0.686,2.6953 1.353,5.318 2.02,7.9406 0.034,0.0043 0.068,0.0086 0.102,0.0125 1.013,-2.5894 2.025,-5.1793 3.065,-7.8398"
         style="fill:#ffffff;fill-opacity:1;fill-rule:nonzero;stroke:none"
         id="path54"
         inkscape:connector-curvature="0" /><path
         d="m 151.265,58.5707 c 0.101,-1.7668 0.196,-3.432 0.296,-5.1801 -2.726,0.5664 -5.376,1.1168 -8.166,1.6969 2.672,1.1824 5.218,2.3098 7.87,3.4832"
         style="fill:#ffffff;fill-opacity:1;fill-rule:nonzero;stroke:none"
         id="path56"
         inkscape:connector-curvature="0" /><path
         d="m 156.06,66.1156 c -1.146,-1.2699 -2.238,-2.4808 -3.378,-3.7449 -1.511,2.3094 -2.981,4.559 -4.452,6.8082 0.02,0.0266 0.04,0.0531 0.06,0.0797 2.572,-1.0406 5.144,-2.0809 7.77,-3.143"
         style="fill:#ffffff;fill-opacity:1;fill-rule:nonzero;stroke:none"
         id="path58"
         inkscape:connector-curvature="0" /><path
         d="m 151.682,74.9141 c 1.594,0.6629 3.085,1.2824 4.654,1.9343 0.371,-2.7105 0.735,-5.3679 1.099,-8.0257 -0.031,-0.0204 -0.063,-0.0407 -0.094,-0.061 -1.866,2.0281 -3.731,4.0563 -5.659,6.1524"
         style="fill:#ffffff;fill-opacity:1;fill-rule:nonzero;stroke:none"
         id="path60"
         inkscape:connector-curvature="0" /><path
         d="m 181.18,68.241 c 0.678,-1.4562 1.359,-2.9199 2.073,-4.4558 -1.345,-0.3153 -2.682,-0.4965 -4.004,-0.7489 -1.327,-0.2531 -2.661,-0.4711 -3.979,-0.7019 1.959,1.9578 3.908,3.9054 5.91,5.9066"
         style="fill:#ffffff;fill-opacity:1;fill-rule:nonzero;stroke:none"
         id="path62"
         inkscape:connector-curvature="0" /><path
         d="m 159.058,44.2109 c 0.094,-2.7437 0.188,-5.4871 0.285,-8.3183 -1.614,0.5262 -3.174,1.0355 -4.792,1.5633 1.488,2.3015 2.939,4.5441 4.389,6.7867 0.039,-0.0106 0.078,-0.0211 0.118,-0.0317"
         style="fill:#ffffff;fill-opacity:1;fill-rule:nonzero;stroke:none"
         id="path64"
         inkscape:connector-curvature="0" /><path
         d="m 150.786,41.3547 -0.027,0.0019 0.044,0.0024 -0.017,-0.0043"
         style="fill:#ffffff;fill-opacity:1;fill-rule:nonzero;stroke:none"
         id="path66"
         inkscape:connector-curvature="0" /><path
         d="m 136.389,22.4504 c 0.176,0 0.282,0.1117 0.282,0.2922 0,0.1859 -0.106,0.2867 -0.276,0.2867 l -0.255,0 0,-0.5789 0.249,0 z m -0.701,0.9086 0.808,0 c 0.382,0 0.638,-0.2445 0.638,-0.6164 0,-0.3031 -0.208,-0.468 -0.346,-0.5047 l 0,-0.0109 c 0,0 0.022,-0.0211 0.069,-0.1118 l 0.367,-0.7011 -0.5,0 -0.329,0.7172 -0.255,0 0,-0.7172 -0.452,0 0,1.9449 z m 0.664,-2.5035 c 0.819,0 1.446,0.6699 1.446,1.5203 0,0.8453 -0.627,1.5148 -1.446,1.5148 -0.802,0 -1.424,-0.6695 -1.424,-1.5148 0,-0.8504 0.622,-1.5203 1.424,-1.5203 z m 0,3.4656 c 1.063,0 1.914,-0.8664 1.914,-1.9453 0,-1.0789 -0.851,-1.9504 -1.914,-1.9504 -1.047,0 -1.897,0.8715 -1.897,1.9504 0,1.0789 0.85,1.9453 1.897,1.9453"
         style="fill:#ffffff;fill-opacity:1;fill-rule:nonzero;stroke:none"
         id="path70"
         inkscape:connector-curvature="0" /></g></g></svg>